<svg viewBox="0 0 900 900">
  <path d="M450.6,3C203.4,3,3,203.4,3,450.6s200.4,447.5,447.6,447.5c247.2,0,447.5-200.4,447.5-447.5 S697.7,3,450.6,3z M450.6,824.6c-206.3,0-374-167.8-374-374s167.8-374,374-374c206.2,0,374,167.8,374,374S656.8,824.6,450.6,824.6z " fill="#fff"/>
  <path
    d="M184.3,346.5c0,0-10.5,5.1-10.5,19.7v168.6c0,0-0.5,8.7,10.6,19.8l252.9,168.6c13.2,8.4,26.4,0,26.4,0 l252.9-168.6c0,0,10.6-5.4,10.6-19.8l0,0V366.2c0-14.3-10.6-19.8-10.6-19.8L463.7,177.8c-8-5.3-18.4-5.3-26.4,0L184.4,346.5 M184.3,346.5
    M474.3,242l186.3,124.2l-83.2,55.7l-103.1-69V242z M426.8,242V353l-103.1,69l-83.2-55.7L426.8,242z M221.4,410.8 l59.5,39.8l-59.5,39.8V410.8z M426.8,659.1L240.4,534.8l83.2-55.7l103.1,69V659.1z M450.6,506.8l-84.1-56.3l84.1-56.3l84.1,56.3 L450.6,506.8z
    M474.3,659.1V548.1l103.1-69l83.2,55.7L474.3,659.1z M679.7,490.4l-59.5-39.8l59.5-39.8V490.4z" fill="#fff"/>
</svg>
