<svg viewBox="0 0 900 900">
<path fill="#2AA9E0" d="M900,170.9c-33.1,14.7-68.7,24.6-106,29.1
	c38.1-22.9,67.4-59,81.2-102.2c-35.7,21.2-75.2,36.5-117.3,44.8c-33.7-35.9-81.7-58.3-134.8-58.3c-102,0-184.6,82.7-184.6,184.6
	c0,14.5,1.6,28.6,4.8,42.1c-153.5-7.7-289.5-81.2-380.6-192.9c-15.9,27.3-25,59-25,92.8c0,64.1,32.6,120.6,82.1,153.7
	c-30.3-1-58.7-9.3-83.6-23.1c0,0.8,0,1.5,0,2.3c0,89.5,63.6,164.1,148.1,181.1c-15.5,4.2-31.8,6.5-48.6,6.5
	c-11.9,0-23.5-1.2-34.7-3.3c23.5,73.4,91.7,126.7,172.5,128.2c-63.2,49.5-142.8,79-229.3,79c-14.9,0-29.6-0.9-44-2.6
	c81.7,52.4,178.8,83,283,83c339.6,0,525.3-281.3,525.3-525.3c0-8-0.2-16-0.5-23.9C843.9,240.4,875.2,207.9,900,170.9L900,170.9z"/>
</svg>
